<?xml version="1.0" encoding="iso-8859-1"?>
<!-- Generator: Adobe Illustrator 16.0.0, SVG Export Plug-In . SVG Version: 6.00 Build 0)  -->
<!DOCTYPE svg PUBLIC "-//W3C//DTD SVG 1.1//EN" "http://www.w3.org/Graphics/SVG/1.1/DTD/svg11.dtd">
<svg xmlns="http://www.w3.org/2000/svg" xmlns:xlink="http://www.w3.org/1999/xlink" version="1.1" id="Capa_1" x="0px" y="0px" width="512px" height="512px" viewBox="0 0 358.613 358.613" style="enable-background:new 0 0 358.613 358.613;" xml:space="preserve">
<g>
	<g>
		<path d="M286.319,209.758c0,0,13.674-8.197,13.5-23.877c-0.172-15.678-11.021-19.902-24.207-19.796l-65.9-0.014    c-2.908-6.404-5.828-18.135-14.24-24.814c-14.982-11.895-27.471-6.413-36.889-0.785c-21.282,12.704-45.341,39.315-59.985,44.249    c-18.007,6.067-39.806,4.486-39.806,4.486v91.684c37.328,0,60.121,13.121,79.125,20.916    c43.066,17.662,73.184,17.358,88.932,16.772c32.658-1.215,35.4-27.87,36.285-33.175c8.475-3.372,14.045-8.527,16.6-15.344    c1-2.654,1.506-5.56,1.506-8.604c0-5.118-1.404-9.728-2.656-12.815c7.424-4.092,12.029-9.551,13.707-16.24    c0.465-1.838,0.678-3.779,0.699-5.774C293.144,213.062,286.319,209.758,286.319,209.758z" fill="#FFFFFF"/>
		<path d="M244.321,333.57l-21.393,0.002v20.041c0,1.326,0.527,2.6,1.465,3.535c0.938,0.939,2.209,1.465,3.535,1.465h11.398    c1.326,0,2.6-0.525,3.535-1.465c0.939-0.938,1.465-2.211,1.465-3.537L244.321,333.57z" fill="#FFFFFF"/>
		<path d="M239.319,0h-11.391c-2.762,0-5,2.239-5,5v4.419c-5.021,1.332-10.293,1.986-15.932,1.986    c-11.38,0-23.051-2.687-34.338-5.285c-11.609-2.672-23.613-5.435-35.67-5.435c-9.861,0-18.725,1.837-27.098,5.616    c-0.907,0.41-1.484,1.245-1.492,2.162c-0.008,0.917,0.554,1.76,1.454,2.183c14.908,6.998,26.032,19.369,36.703,31.51    c-14.184,12.398-26.554,26.513-37.761,43.079c-0.628,0.928-0.5,2.12,0.314,2.92c0.813,0.802,2.116,1.02,3.193,0.533    c7.607-3.433,15.682-5.103,24.687-5.103c11.381,0,23.052,2.687,34.339,5.284c11.608,2.672,23.612,5.435,35.669,5.435    c5.604,0,10.878-0.615,15.932-1.821v58.488h21.391V5C244.319,2.24,242.081,0,239.319,0z" fill="#FFFFFF"/>
	</g>
</g>
<g>
</g>
<g>
</g>
<g>
</g>
<g>
</g>
<g>
</g>
<g>
</g>
<g>
</g>
<g>
</g>
<g>
</g>
<g>
</g>
<g>
</g>
<g>
</g>
<g>
</g>
<g>
</g>
<g>
</g>
</svg>
