<?xml version="1.0" encoding="UTF-8"?>
<svg xmlns="http://www.w3.org/2000/svg" xmlns:xlink="http://www.w3.org/1999/xlink" viewBox="0 0 64 64" version="1.1" width="50px" height="50px">
<g id="surface1">
<path style=" fill:#ED7899;" d="M 59 31 C 59 46.464844 46.464844 59 31 59 C 15.535156 59 3 46.464844 3 31 C 3 15.535156 15.535156 3 31 3 C 46.464844 3 59 15.535156 59 31 Z "/>
<path style=" fill:#72CAAF;" d="M 3.640625 30.878906 C 3.664063 24.839844 5.535156 18.949219 9 14 L 22 37 C 22 37 36 41.089844 36 41.070313 L 26.210938 58 C 13.148438 55.554688 3.671875 44.167969 3.640625 30.878906 Z "/>
<path style=" fill:#5DBC9D;" d="M 29.679688 53 C 25.691406 52.738281 21.847656 51.421875 18.539063 49.179688 C 17.703125 48.617188 16.640625 48.511719 15.710938 48.898438 C 14.6875 49.328125 13.988281 50.285156 13.886719 51.386719 C 13.78125 52.492188 14.296875 53.558594 15.21875 54.171875 C 18.761719 56.546875 22.785156 58.109375 27 58.738281 C 31.421875 59.441406 32.628906 53.199219 29.679688 53 Z "/>
<path style=" fill:#F9E3AE;" d="M 44.878906 54.710938 C 39.601563 57.640625 33.550781 58.890625 27.539063 58.289063 L 40.238281 35.699219 L 36.75 21.5 L 57.519531 21.75 C 61.777344 34.347656 56.46875 48.191406 44.878906 54.710938 Z "/>
<path style=" fill:#F283A5;" d="M 50.46875 16.550781 C 51.355469 16.179688 52.007813 15.410156 52.230469 14.476563 C 52.453125 13.542969 52.214844 12.558594 51.589844 11.828125 C 42.140625 1.207031 26.230469 -0.644531 14.589844 7.519531 C 13.699219 8.160156 13.230469 9.230469 13.363281 10.316406 C 13.492188 11.402344 14.203125 12.332031 15.21875 12.738281 C 16.144531 13.097656 17.183594 12.980469 18 12.421875 C 27.117188 6.035156 39.566406 7.464844 47 15.75 C 47.855469 16.75 49.261719 17.074219 50.46875 16.550781 Z "/>
<path style=" fill:#F6D397;" d="M 52.589844 34.789063 C 51.5 41 47.671875 47.140625 40.101563 51.628906 C 39.847656 51.78125 39.574219 51.894531 39.289063 51.96875 C 36.164063 52.839844 32.917969 53.179688 29.679688 52.96875 C 28.75 55.488281 28.328125 55.609375 26.949219 58.71875 C 31.894531 59.4375 36.933594 59.125 41.75 57.800781 C 42.050781 57.722656 42.335938 57.601563 42.601563 57.441406 C 52.058594 51.710938 57.058594 43.851563 58.488281 35.871094 C 58.695313 34.78125 58.285156 33.671875 57.425781 32.976563 C 56.5625 32.28125 55.390625 32.117188 54.371094 32.550781 C 53.4375 32.949219 52.765625 33.789063 52.589844 34.789063 Z "/>
<path style=" fill:#85CBF8;" d="M 41 31 C 41 36.523438 36.523438 41 31 41 C 25.476563 41 21 36.523438 21 31 C 21 25.476563 25.476563 21 31 21 C 36.523438 21 41 25.476563 41 31 Z "/>
<path style=" fill:#8D6C9F;" d="M 46.308594 15.921875 C 46.699219 16.3125 47.332031 16.3125 47.726563 15.925781 C 48.117188 15.535156 48.121094 14.902344 47.730469 14.511719 C 47.136719 13.917969 46.511719 13.355469 45.859375 12.828125 C 45.429688 12.480469 44.796875 12.550781 44.449219 12.980469 C 44.101563 13.410156 44.167969 14.042969 44.601563 14.390625 C 45.199219 14.867188 45.769531 15.378906 46.308594 15.921875 Z "/>
<path style=" fill:#8D6C9F;" d="M 26.121094 10.421875 C 30.035156 9.398438 34.160156 9.535156 38 10.808594 C 39.027344 11.128906 40.03125 11.527344 41 12 C 41.140625 12.070313 41.292969 12.109375 41.449219 12.109375 C 41.910156 12.105469 42.308594 11.789063 42.417969 11.339844 C 42.523438 10.894531 42.308594 10.429688 41.898438 10.21875 C 40.875 9.699219 39.8125 9.253906 38.71875 8.890625 C 34.496094 7.484375 29.953125 7.335938 25.648438 8.46875 C 25.285156 8.542969 24.992188 8.8125 24.886719 9.167969 C 24.78125 9.527344 24.882813 9.910156 25.152344 10.167969 C 25.417969 10.429688 25.808594 10.515625 26.160156 10.398438 Z "/>
<path style=" fill:#8D6C9F;" d="M 15.171875 39.5 C 14.925781 39.007813 14.324219 38.804688 13.828125 39.050781 L 12.039063 39.949219 C 11.546875 40.199219 11.347656 40.800781 11.59375 41.296875 C 11.84375 41.789063 12.445313 41.988281 12.941406 41.738281 L 14.730469 40.839844 C 15.21875 40.589844 15.417969 39.992188 15.171875 39.5 Z "/>
<path style=" fill:#8D6C9F;" d="M 16.46875 43.410156 L 15 44.738281 C 14.710938 44.972656 14.574219 45.34375 14.644531 45.707031 C 14.710938 46.070313 14.976563 46.367188 15.328125 46.476563 C 15.683594 46.585938 16.066406 46.492188 16.328125 46.230469 L 17.828125 44.898438 C 18.207031 44.527344 18.226563 43.921875 17.871094 43.523438 C 17.519531 43.128906 16.914063 43.078125 16.5 43.410156 Z "/>
<path style=" fill:#8D6C9F;" d="M 12.179688 31.058594 L 12.238281 31.058594 C 12.792969 31.078125 13.253906 30.640625 13.269531 30.089844 C 13.285156 29.539063 12.851563 29.078125 12.300781 29.058594 L 10.300781 28.941406 C 10.035156 28.921875 9.773438 29.011719 9.574219 29.191406 C 9.375 29.367188 9.253906 29.613281 9.238281 29.878906 C 9.222656 30.144531 9.3125 30.40625 9.488281 30.605469 C 9.667969 30.804688 9.914063 30.925781 10.179688 30.941406 Z "/>
<path style=" fill:#8D6C9F;" d="M 21.53125 46.660156 C 21.308594 46.511719 21.039063 46.457031 20.777344 46.511719 C 20.515625 46.5625 20.285156 46.71875 20.140625 46.941406 L 19 48.609375 C 18.707031 49.070313 18.839844 49.679688 19.292969 49.980469 C 19.75 50.28125 20.363281 50.160156 20.671875 49.710938 L 21.820313 48 C 22.09375 47.546875 21.964844 46.960938 21.53125 46.660156 Z "/>
<path style=" fill:#8D6C9F;" d="M 13.589844 34.941406 C 13.480469 34.398438 12.953125 34.050781 12.410156 34.160156 L 10.410156 34.558594 C 9.859375 34.613281 9.453125 35.109375 9.511719 35.660156 C 9.566406 36.210938 10.058594 36.613281 10.609375 36.558594 L 10.808594 36.558594 L 12.808594 36.160156 C 13.078125 36.109375 13.3125 35.949219 13.460938 35.71875 C 13.609375 35.488281 13.65625 35.207031 13.589844 34.941406 Z "/>
<path style=" fill:#8D6C9F;" d="M 31 2 C 14.984375 2 2 14.984375 2 31 C 2 47.015625 14.984375 60 31 60 C 47.015625 60 60 47.015625 60 31 C 60 14.984375 47.015625 2 31 2 Z M 31 4 C 41.652344 4.003906 51.308594 10.269531 55.648438 20 L 31 20 C 25.292969 19.976563 20.519531 24.320313 20 30 L 10.488281 13.46875 C 15.609375 7.460938 23.105469 4 31 4 Z M 40 31 C 40 35.96875 35.96875 40 31 40 C 26.03125 40 22 35.96875 22 31 C 22 26.03125 26.03125 22 31 22 C 35.96875 22 40 26.03125 40 31 Z M 4 31 C 3.996094 25.308594 5.796875 19.761719 9.148438 15.160156 L 21.46875 36.5 C 24.292969 41.464844 30.460938 43.425781 35.628906 41 L 26.070313 57.539063 C 13.28125 55.164063 4.003906 44.007813 4 31 Z M 31 58 C 30.066406 58 29.128906 57.949219 28.199219 57.851563 L 40.53125 36.5 C 43.375 31.566406 41.984375 25.273438 37.320313 22 L 56.449219 22 C 59.371094 30.261719 58.101563 39.429688 53.042969 46.585938 C 47.980469 53.742188 39.765625 58 31 58 Z "/>
</g>
</svg>
