<?xml version="1.0" encoding="UTF-8"?>
<svg xmlns="http://www.w3.org/2000/svg" xmlns:xlink="http://www.w3.org/1999/xlink" viewBox="0 0 64 64" version="1.1" width="64px" height="64px">
<g id="surface1">
<path style=" fill:#85CBF8;" d="M 54.605469 28.824219 C 54.578125 25.710938 54.019531 22.707031 52.941406 19.898438 C 50.992188 14.804688 47.707031 10.890625 43.175781 8.265625 C 38.214844 5.390625 32.761719 4.410156 26.984375 5.339844 C 21.042969 6.300781 16.125 9.089844 12.367188 13.632813 C 9.316406 17.316406 6.78125 22.78125 6 28 C 5.96875 28.210938 8.59375 26.230469 8.777344 25.972656 C 9.140625 25.460938 9.480469 24.984375 9.847656 24.527344 C 13.035156 20.558594 17.105469 17.65625 21.9375 15.894531 C 25.59375 14.5625 28.886719 14.164063 32.011719 14.664063 C 34.46875 15.058594 36.851563 16.195313 38 18 C 38.847656 19.328125 39.671875 23.832031 39.800781 25.875 C 39.808594 25.972656 39.808594 26.070313 39.8125 26.164063 L 21.144531 26.164063 C 21.496094 24.777344 22.121094 24.089844 23.25 22.855469 C 23.511719 22.570313 23.796875 22.257813 24.101563 21.910156 C 24.351563 21.625 24.378906 21.222656 24.222656 20.875 C 24.066406 20.53125 23.6875 20.308594 23.308594 20.308594 C 23.203125 20.300781 23.058594 20.316406 22.9375 20.347656 L 22.9375 20.34375 C 15.628906 22.300781 13 29 12.570313 40.203125 C 12.25 48.640625 20.347656 54.773438 29.003906 56.527344 C 30.5625 56.84375 32.21875 57 34.078125 57 C 35.058594 57 36.097656 56.957031 37.207031 56.871094 C 41.535156 56.535156 45.652344 55.40625 49.449219 53.515625 C 50.097656 53.191406 50.425781 52.660156 50.421875 51.933594 C 50.410156 49.6875 50.410156 48.441406 50.414063 46.199219 L 50.414063 43.414063 C 50.414063 43.265625 50.402344 43.121094 50.390625 42.972656 L 50.378906 42.816406 C 50.347656 42.292969 49.84375 41.902344 49.316406 41.914063 C 49.164063 41.917969 48.96875 41.96875 48.835938 42.039063 L 48.425781 42.273438 C 43.386719 45.15625 37.945313 46.195313 32.257813 45.363281 C 29.320313 44.9375 27.070313 43.851563 25.382813 42.050781 C 24.089844 40.671875 22.363281 38.015625 22.1875 36.011719 L 53.695313 36.011719 C 54.226563 36.011719 54.65625 35.578125 54.65625 35.046875 L 54.65625 34.820313 Z "/>
<path style=" fill:#6FC6F0;" d="M 49.449219 49.515625 C 45.652344 51.40625 41.53125 52.535156 37.203125 52.871094 C 36.097656 52.957031 35.058594 53 34.078125 53 C 32.21875 53 30.5625 52.84375 29.003906 52.527344 C 21.050781 50.914063 13.589844 45.605469 12.675781 38.214844 C 12.632813 38.859375 12.597656 39.523438 12.570313 40.203125 C 12.25 48.644531 20.347656 54.773438 29.003906 56.527344 C 30.5625 56.84375 32.21875 57 34.078125 57 C 35.058594 57 36.097656 56.957031 37.207031 56.871094 C 41.535156 56.535156 45.652344 55.40625 49.449219 53.515625 C 50.097656 53.191406 50.425781 52.660156 50.421875 51.933594 C 50.414063 50.367188 50.414063 49.28125 50.410156 48.007813 C 50.390625 48.691406 50.074219 49.203125 49.449219 49.515625 Z "/>
<path style=" fill:#9FDDFF;" d="M 12.367188 13.632813 C 12.335938 13.671875 12.304688 13.714844 12.273438 13.753906 C 12.636719 14.316406 13.195313 14.769531 13.933594 14.957031 L 13.941406 14.957031 C 14.851563 15.1875 15.820313 14.949219 16.507813 14.304688 C 17.550781 13.328125 18.714844 12.441406 19.992188 11.675781 C 27.71875 7.050781 37.253906 8.101563 43.777344 13.59375 C 44.703125 14.371094 46.011719 14.503906 47.050781 13.882813 L 47.066406 13.871094 C 47.671875 13.507813 48.085938 12.960938 48.289063 12.351563 C 46.8125 10.761719 45.117188 9.386719 43.175781 8.265625 C 38.214844 5.390625 32.761719 4.40625 26.984375 5.339844 C 21.042969 6.300781 16.125 9.089844 12.367188 13.632813 Z "/>
<path style=" fill:#8D6C9F;" d="M 55.527344 28.738281 C 55.5 25.507813 54.917969 22.390625 53.800781 19.472656 C 51.777344 14.179688 48.363281 10.117188 43.65625 7.390625 C 38.507813 4.40625 32.847656 3.386719 26.847656 4.355469 C 20.675781 5.351563 15.570313 8.246094 11.667969 12.964844 C 8.503906 16.789063 6.484375 21.476563 5.675781 26.894531 C 5.644531 27.113281 5.617188 27.332031 5.589844 27.589844 L 5.542969 27.984375 C 5.488281 28.4375 5.746094 28.867188 6.167969 29.035156 C 6.589844 29.203125 7.074219 29.0625 7.34375 28.691406 C 7.554688 28.402344 7.75 28.125 7.941406 27.855469 C 8.320313 27.324219 8.671875 26.828125 9.050781 26.355469 C 12.363281 22.234375 16.589844 19.21875 21.605469 17.390625 C 25.402344 16.007813 28.824219 15.589844 32.066406 16.113281 C 34.617188 16.523438 36.4375 17.632813 37.632813 19.507813 C 38.511719 20.886719 38.984375 22.519531 39.117188 24.640625 C 39.121094 24.738281 39.128906 24.839844 39.128906 24.941406 L 22.859375 24.941406 C 23.222656 23.5 23.875 22.785156 25.046875 21.503906 C 25.316406 21.203125 25.613281 20.882813 25.929688 20.519531 C 26.191406 20.226563 26.21875 19.804688 26.054688 19.445313 C 25.894531 19.089844 25.5 18.859375 25.105469 18.859375 C 25 18.847656 24.847656 18.867188 24.722656 18.898438 L 24.722656 18.894531 C 17.132813 20.929688 9.769531 27.683594 11.882813 40.554688 C 13.414063 49.191406 19.953125 55.683594 28.945313 57.507813 C 30.566406 57.835938 32.285156 57.996094 34.214844 57.996094 C 35.234375 57.996094 36.308594 57.953125 37.460938 57.863281 C 41.957031 57.515625 46.234375 56.34375 50.175781 54.378906 C 50.847656 54.039063 51.1875 53.488281 51.183594 52.734375 C 51.175781 50.40625 51.175781 48.074219 51.175781 45.742188 L 51.175781 42.851563 C 51.175781 42.699219 51.164063 42.546875 51.152344 42.394531 L 51.140625 42.230469 C 51.109375 41.6875 50.585938 41.28125 50.035156 41.292969 C 49.878906 41.296875 49.675781 41.347656 49.539063 41.425781 L 49.109375 41.671875 C 43.878906 44.660156 38.226563 45.738281 32.320313 44.878906 C 29.269531 44.433594 26.9375 43.308594 25.179688 41.4375 C 23.839844 40.007813 23.089844 38.289063 22.902344 36.203125 L 54.582031 36.203125 C 55.132813 36.203125 55.582031 35.757813 55.582031 35.203125 L 55.582031 34.972656 Z M 21.855469 34.203125 C 21.589844 34.203125 21.335938 34.308594 21.144531 34.5 C 20.957031 34.6875 20.855469 34.941406 20.855469 35.210938 C 20.871094 38.28125 21.808594 40.765625 23.722656 42.808594 C 25.800781 45.019531 28.515625 46.34375 32.03125 46.855469 C 38.023438 47.730469 43.765625 46.753906 49.175781 43.914063 L 49.175781 45.742188 C 49.175781 48.027344 49.171875 50.316406 49.179688 52.640625 C 45.5 54.457031 41.503906 55.546875 37.308594 55.871094 C 34.160156 56.113281 31.628906 56.011719 29.34375 55.546875 C 21.175781 53.894531 15.238281 48.015625 13.855469 40.21875 C 12.273438 30.566406 16.582031 24.761719 21.980469 22.0625 C 21.339844 23.007813 20.894531 24.09375 20.667969 25.8125 C 20.628906 26.097656 20.714844 26.382813 20.90625 26.601563 C 21.097656 26.816406 21.371094 26.941406 21.65625 26.941406 L 40.121094 26.941406 C 40.671875 26.941406 41.121094 26.496094 41.121094 25.941406 L 41.125 25.53125 C 41.128906 25.191406 41.136719 24.851563 41.113281 24.515625 C 40.960938 22.042969 40.386719 20.109375 39.320313 18.429688 C 37.820313 16.082031 35.488281 14.640625 32.386719 14.140625 C 28.796875 13.5625 25.046875 14.011719 20.921875 15.515625 C 15.929688 17.332031 11.667969 20.253906 8.246094 24.203125 C 9.199219 20.386719 10.835938 17.105469 13.210938 14.238281 C 16.792969 9.90625 21.488281 7.246094 27.164063 6.328125 C 32.703125 5.4375 37.914063 6.375 42.65625 9.121094 C 46.957031 11.613281 50.078125 15.335938 51.933594 20.1875 C 52.964844 22.878906 53.503906 25.765625 53.527344 28.757813 L 53.578125 34.203125 Z "/>
<path style=" fill:#8D6C9F;" d="M 41.253906 10.730469 C 40.367188 10.214844 39.453125 9.765625 38.535156 9.398438 C 38.019531 9.191406 37.441406 9.441406 37.234375 9.953125 C 37.027344 10.46875 37.277344 11.050781 37.789063 11.253906 C 38.617188 11.589844 39.445313 11.992188 40.253906 12.460938 C 40.410156 12.550781 40.582031 12.59375 40.753906 12.59375 C 41.097656 12.59375 41.433594 12.414063 41.617188 12.097656 C 41.894531 11.617188 41.734375 11.007813 41.253906 10.730469 Z "/>
<path style=" fill:#8D6C9F;" d="M 34.285156 8.214844 C 32.113281 7.863281 29.839844 7.875 27.523438 8.25 C 26.804688 8.363281 26.089844 8.515625 25.402344 8.695313 C 24.867188 8.835938 24.546875 9.382813 24.6875 9.917969 C 24.808594 10.367188 25.210938 10.664063 25.65625 10.664063 C 25.738281 10.664063 25.824219 10.652344 25.910156 10.632813 C 26.535156 10.46875 27.1875 10.328125 27.84375 10.226563 C 29.945313 9.886719 32.007813 9.871094 33.96875 10.191406 C 34.511719 10.277344 35.027344 9.90625 35.113281 9.363281 C 35.203125 8.816406 34.832031 8.304688 34.285156 8.214844 Z "/>
<path style=" fill:#8D6C9F;" d="M 12.503906 54.582031 L 11.089844 55.996094 C 10.699219 56.386719 10.699219 57.019531 11.089844 57.410156 C 11.285156 57.605469 11.539063 57.703125 11.796875 57.703125 C 12.054688 57.703125 12.308594 57.605469 12.503906 57.410156 L 13.917969 55.996094 C 14.308594 55.605469 14.308594 54.972656 13.917969 54.582031 C 13.527344 54.191406 12.894531 54.191406 12.503906 54.582031 Z "/>
<path style=" fill:#8D6C9F;" d="M 17.75 57.519531 C 17.269531 57.246094 16.660156 57.40625 16.382813 57.886719 L 15.382813 59.617188 C 15.109375 60.097656 15.269531 60.707031 15.75 60.984375 C 15.90625 61.074219 16.078125 61.117188 16.25 61.117188 C 16.59375 61.117188 16.929688 60.9375 17.117188 60.617188 L 18.117188 58.886719 C 18.390625 58.410156 18.230469 57.796875 17.75 57.519531 Z "/>
<path style=" fill:#8D6C9F;" d="M 9.128906 46.289063 C 8.988281 45.753906 8.441406 45.4375 7.90625 45.582031 L 5.972656 46.097656 C 5.441406 46.242188 5.121094 46.789063 5.265625 47.324219 C 5.386719 47.769531 5.789063 48.066406 6.230469 48.066406 C 6.316406 48.066406 6.402344 48.054688 6.488281 48.03125 L 8.421875 47.511719 C 8.957031 47.371094 9.273438 46.820313 9.128906 46.289063 Z "/>
<path style=" fill:#8D6C9F;" d="M 22.210938 59.371094 C 21.675781 59.226563 21.128906 59.542969 20.988281 60.078125 L 20.46875 62.007813 C 20.324219 62.542969 20.640625 63.089844 21.175781 63.234375 C 21.261719 63.257813 21.351563 63.269531 21.433594 63.269531 C 21.875 63.269531 22.28125 62.972656 22.398438 62.527344 L 22.917969 60.59375 C 23.0625 60.0625 22.746094 59.511719 22.210938 59.371094 Z "/>
<path style=" fill:#8D6C9F;" d="M 10.980469 50.75 C 10.703125 50.269531 10.089844 50.105469 9.613281 50.382813 L 7.882813 51.382813 C 7.402344 51.660156 7.238281 52.273438 7.515625 52.75 C 7.699219 53.070313 8.035156 53.25 8.382813 53.25 C 8.550781 53.25 8.722656 53.207031 8.882813 53.117188 L 10.613281 52.117188 C 11.089844 51.839844 11.253906 51.230469 10.980469 50.75 Z "/>
</g>
</svg>
