<?xml version="1.0" encoding="UTF-8"?>
<svg xmlns="http://www.w3.org/2000/svg" xmlns:xlink="http://www.w3.org/1999/xlink" viewBox="0 0 64 64" version="1.1" width="64px" height="64px">
<g id="surface1">
<path style=" fill:#85CBF8;" d="M 59 31 C 59 46.464844 46.464844 59 31 59 C 15.535156 59 3 46.464844 3 31 C 3 15.535156 15.535156 3 31 3 C 46.464844 3 59 15.535156 59 31 Z "/>
<path style=" fill:#7BBEEB;" d="M 31 3 L 32.550781 6.480469 C 39.226563 21.5 39.445313 38.601563 33.160156 53.789063 L 31 59 C 46.464844 59 59 46.464844 59 31 C 59 15.535156 46.464844 3 31 3 Z "/>
<path style=" fill:#F9DD8F;" d="M 22.46875 17.929688 C 22.769531 15.621094 24.199219 13.613281 26.28125 12.570313 C 23.273438 12.039063 20.226563 13.289063 18.460938 15.78125 C 16.515625 15.296875 14.488281 15.265625 12.53125 15.691406 C 10.648438 14.207031 9.542969 11.945313 9.53125 9.550781 C 6.800781 12.738281 6.230469 15.148438 6.53125 18.019531 C -3.949219 36.660156 10.199219 59.078125 30.371094 59.078125 C 48.488281 59.078125 59 45.351563 59 31.269531 C 59 21.78125 54.21875 15.019531 50.671875 11.191406 C 52.320313 12.988281 53.769531 18.261719 53.410156 21.511719 C 49.839844 12.300781 41.128906 8.828125 36.75 8.828125 C 47.25 12 50.160156 25.738281 49.28125 29.578125 C 48.421875 25.078125 45.679688 21.210938 44.039063 20.179688 C 53.609375 42.398438 30.5 49.179688 23.449219 41.511719 C 26.242188 42.042969 29.136719 41.503906 31.550781 40 C 34.070313 38.328125 34.300781 38.230469 35.921875 38.109375 C 37.839844 37.960938 35.800781 34.199219 31.609375 34.839844 C 29.878906 35.101563 27.039063 37.109375 23.539063 35.789063 C 19.320313 34.191406 19.449219 28.480469 23.808594 30.199219 C 24.75 28.988281 24.058594 26.691406 24.058594 26.691406 C 25.246094 25.710938 26.535156 24.863281 27.898438 24.160156 C 29.234375 23.539063 30.101563 22.210938 30.128906 20.738281 C 29.523438 20.28125 28.757813 20.078125 28 20.179688 C 23.109375 20.480469 22.789063 18.738281 22.46875 17.929688 Z "/>
<path style=" fill:#F7CC8F;" d="M 46 47.070313 C 41.359375 51.378906 34.621094 54 25.859375 53 C 25.566406 52.972656 25.277344 52.90625 25 52.800781 C 16.859375 49.511719 12.148438 44 10.121094 38.070313 C 9.785156 37.113281 8.984375 36.390625 8 36.148438 C 6.929688 35.878906 5.792969 36.222656 5.050781 37.039063 C 4.304688 37.855469 4.070313 39.019531 4.441406 40.058594 C 7.070313 47.730469 13.21875 54.738281 23.441406 58.949219 C 23.726563 59.070313 24.03125 59.148438 24.339844 59.179688 C 35.371094 60.289063 44.089844 57 50 51.488281 C 50.820313 50.746094 51.160156 49.613281 50.890625 48.539063 C 50.621094 47.464844 49.78125 46.628906 48.710938 46.359375 C 47.746094 46.132813 46.730469 46.398438 46 47.070313 Z "/>
<path style=" fill:#8D6C9F;" d="M 60 31.71875 C 60 31.570313 60 31.421875 60 31.28125 C 60 31.140625 60 31.078125 60 30.96875 C 59.980469 19.269531 52.929688 8.726563 42.125 4.238281 C 31.316406 -0.246094 18.875 2.195313 10.570313 10.441406 C 10.546875 10.160156 10.546875 9.878906 10.570313 9.601563 C 10.59375 9.171875 10.339844 8.777344 9.941406 8.621094 C 9.542969 8.460938 9.085938 8.574219 8.808594 8.898438 C 6.390625 11.730469 5.421875 14.199219 5.550781 17.199219 C 5.550781 17.199219 5.398438 17.449219 5.339844 17.550781 C 3.023438 21.9375 1.875 26.847656 2 31.808594 C 2 31.988281 2 32.171875 2 32.351563 C 2 32.53125 2 32.78125 2 33 C 2.296875 37.523438 3.667969 41.910156 6 45.800781 C 10.976563 54.585938 20.273438 60.035156 30.371094 60.078125 C 49.320313 60.078125 59.671875 45.699219 59.988281 31.929688 C 60 31.859375 60 31.789063 60 31.71875 Z M 41 5.921875 C 44.257813 7.21875 47.230469 9.144531 49.75 11.589844 C 49.789063 11.691406 49.847656 11.785156 49.921875 11.871094 C 50.957031 13.324219 51.667969 14.984375 52 16.738281 C 45.539063 8.628906 35.929688 7.511719 35.210938 7.390625 C 34.667969 7.300781 34.152344 7.667969 34.058594 8.210938 C 33.96875 8.753906 34.335938 9.269531 34.878906 9.359375 C 43.671875 11.578125 45.46875 16.058594 47.578125 22.660156 C 46.820313 21.355469 45.800781 20.21875 44.578125 19.328125 C 44.210938 19.097656 43.730469 19.132813 43.398438 19.417969 C 43.066406 19.703125 42.957031 20.167969 43.128906 20.570313 C 48.691406 33.46875 42.410156 39.308594 39.460938 41.21875 C 35.460938 43.789063 30.339844 44.21875 26.769531 42.640625 C 28.664063 42.449219 30.488281 41.816406 32.101563 40.800781 C 34.539063 39.179688 34.621094 39.179688 35.988281 39.070313 C 36.640625 39.046875 37.21875 38.660156 37.488281 38.070313 C 37.765625 37.265625 37.574219 36.375 37 35.75 C 35.628906 34.152344 33.503906 33.417969 31.441406 33.820313 C 30.808594 33.941406 30.1875 34.128906 29.589844 34.371094 C 28.019531 34.941406 26.070313 35.648438 23.878906 34.820313 C 22.660156 34.414063 21.742188 33.394531 21.46875 32.140625 C 21.359375 31.738281 21.464844 31.304688 21.75 31 C 22.058594 30.75 22.671875 30.78125 23.441406 31.078125 C 23.855469 31.242188 24.328125 31.113281 24.601563 30.761719 C 25.296875 29.636719 25.5 28.277344 25.171875 27 C 26.007813 26.363281 26.894531 25.796875 27.820313 25.300781 L 28.398438 25 C 30.289063 23.898438 31.199219 22.441406 31.121094 20.671875 C 31.105469 20.378906 30.960938 20.109375 30.730469 19.929688 C 29.925781 19.320313 28.910156 19.054688 27.910156 19.191406 C 24.25 19.421875 23.730469 18.460938 23.488281 17.828125 C 23.8125 15.957031 25.003906 14.347656 26.699219 13.488281 C 27.09375 13.300781 27.320313 12.875 27.257813 12.441406 C 27.191406 12.007813 26.851563 11.667969 26.421875 11.601563 C 23.265625 11.054688 20.0625 12.222656 18 14.671875 C 16.273438 14.332031 14.496094 14.332031 12.769531 14.671875 C 12.140625 14.097656 11.617188 13.421875 11.21875 12.671875 C 18.820313 4.519531 30.628906 1.84375 41 5.921875 Z M 8.890625 12.058594 C 9.445313 13.804688 10.507813 15.347656 11.941406 16.488281 C 12.164063 16.65625 12.445313 16.722656 12.71875 16.671875 C 14.546875 16.265625 16.445313 16.292969 18.261719 16.75 C 18.648438 16.820313 19.039063 16.65625 19.261719 16.328125 C 20.21875 14.976563 21.644531 14.023438 23.261719 13.648438 C 22.273438 14.835938 21.636719 16.277344 21.429688 17.808594 C 21.410156 17.976563 21.429688 18.144531 21.488281 18.300781 L 21.539063 18.441406 C 22.101563 19.960938 23.320313 21.441406 27.980469 21.179688 C 28.335938 21.144531 28.695313 21.179688 29.039063 21.28125 C 28.792969 22.164063 28.171875 22.890625 27.339844 23.28125 L 26.789063 23.601563 C 25.558594 24.246094 24.402344 25.027344 23.339844 25.929688 C 23.0625 26.183594 22.953125 26.570313 23.050781 26.929688 C 23.238281 27.578125 23.292969 28.257813 23.210938 28.929688 C 22.191406 28.589844 21.070313 28.835938 20.289063 29.566406 C 19.507813 30.300781 19.1875 31.402344 19.460938 32.441406 C 19.839844 34.40625 21.242188 36.023438 23.140625 36.671875 C 26.03125 37.761719 28.46875 36.878906 30.25 36.230469 C 30.722656 36.039063 31.210938 35.886719 31.710938 35.78125 C 32.855469 35.550781 34.046875 35.824219 34.980469 36.53125 C 35.175781 36.6875 35.34375 36.878906 35.480469 37.089844 C 33.839844 37.238281 33.351563 37.53125 30.949219 39.089844 C 28.78125 40.449219 26.179688 40.953125 23.660156 40.5 C 23.230469 40.382813 22.777344 40.566406 22.542969 40.945313 C 22.3125 41.324219 22.359375 41.8125 22.660156 42.140625 C 26.539063 46.378906 34.53125 46.699219 40.480469 42.851563 C 46.191406 39.160156 48.359375 32.789063 46.699219 25.230469 C 47.414063 26.648438 47.933594 28.152344 48.238281 29.710938 C 48.332031 30.1875 48.753906 30.527344 49.238281 30.519531 C 49.714844 30.53125 50.136719 30.207031 50.238281 29.738281 C 50.96875 26.558594 49.320313 17.449219 43.660156 11.820313 C 47.699219 13.988281 50.824219 17.535156 52.460938 21.820313 C 52.625 22.253906 53.0625 22.519531 53.523438 22.457031 C 53.984375 22.398438 54.34375 22.03125 54.390625 21.570313 C 54.507813 20.199219 54.433594 18.820313 54.179688 17.46875 C 56.652344 21.574219 57.972656 26.269531 58 31.058594 C 58 31.25 58 31.441406 58 31.628906 C 58 31.820313 58 31.820313 58 31.921875 C 57.480469 46.25 45.855469 57.675781 31.519531 57.941406 C 17.183594 58.207031 5.140625 47.21875 4.089844 32.921875 C 3.796875 27.894531 4.960938 22.890625 7.441406 18.511719 C 7.542969 18.324219 7.585938 18.109375 7.558594 17.898438 C 7.242188 15.855469 7.71875 13.765625 8.890625 12.058594 Z "/>
<path style=" fill:#8D6C9F;" d="M 22.101563 53.289063 C 22.347656 53.386719 22.621094 53.382813 22.867188 53.28125 C 23.109375 53.175781 23.300781 52.976563 23.398438 52.730469 L 24.140625 50.871094 C 24.34375 50.355469 24.09375 49.773438 23.578125 49.570313 C 23.066406 49.367188 22.484375 49.617188 22.28125 50.128906 L 21.539063 52 C 21.339844 52.511719 21.589844 53.085938 22.101563 53.289063 Z "/>
<path style=" fill:#8D6C9F;" d="M 27.789063 54.738281 L 27.910156 54.738281 C 28.417969 54.742188 28.847656 54.363281 28.910156 53.859375 L 29.148438 51.859375 C 29.214844 51.308594 28.824219 50.804688 28.269531 50.738281 C 27.71875 50.671875 27.214844 51.066406 27.148438 51.621094 L 26.910156 53.621094 C 26.875 53.886719 26.949219 54.152344 27.117188 54.363281 C 27.28125 54.574219 27.523438 54.710938 27.789063 54.738281 Z "/>
<path style=" fill:#8D6C9F;" d="M 13.558594 46.699219 C 13.785156 46.703125 14.003906 46.628906 14.179688 46.488281 L 15.75 45.25 C 16.183594 44.90625 16.257813 44.277344 15.914063 43.84375 C 15.574219 43.410156 14.945313 43.335938 14.511719 43.679688 L 12.941406 44.921875 C 12.601563 45.183594 12.46875 45.632813 12.609375 46.039063 C 12.75 46.441406 13.132813 46.714844 13.558594 46.710938 Z "/>
<path style=" fill:#8D6C9F;" d="M 33.519531 54.671875 L 33.660156 54.671875 C 34.207031 54.59375 34.585938 54.085938 34.511719 53.539063 L 34.21875 51.539063 C 34.140625 50.988281 33.628906 50.605469 33.074219 50.683594 C 32.523438 50.765625 32.140625 51.277344 32.21875 51.828125 L 32.511719 53.828125 C 32.589844 54.324219 33.019531 54.679688 33.519531 54.671875 Z "/>
<path style=" fill:#8D6C9F;" d="M 17.578125 50.621094 C 17.894531 50.621094 18.191406 50.472656 18.378906 50.21875 L 19.578125 48.621094 C 19.910156 48.179688 19.820313 47.550781 19.378906 47.21875 C 18.9375 46.886719 18.3125 46.976563 17.980469 47.421875 L 16.78125 49 C 16.554688 49.304688 16.515625 49.707031 16.6875 50.046875 C 16.855469 50.386719 17.203125 50.601563 17.578125 50.601563 Z "/>
<path style=" fill:#8D6C9F;" d="M 28.339844 9.28125 L 28.480469 9.28125 C 29.191406 9.179688 29.902344 9.117188 30.621094 9.089844 C 31.171875 9.089844 31.621094 8.640625 31.621094 8.089844 C 31.621094 7.539063 31.171875 7.089844 30.621094 7.089844 C 29.832031 7.121094 29.050781 7.1875 28.269531 7.300781 C 27.71875 7.339844 27.300781 7.816406 27.339844 8.371094 C 27.378906 8.921875 27.859375 9.339844 28.410156 9.300781 Z "/>
</g>
</svg>
