<?xml version="1.0" encoding="UTF-8"?>
<svg xmlns="http://www.w3.org/2000/svg" xmlns:xlink="http://www.w3.org/1999/xlink" viewBox="0 0 64 64" version="1.1" width="64px" height="64px">
<g id="surface1">
<path style=" fill:#E0678F;" d="M 37.488281 58.238281 C 50.117188 55.246094 59.03125 43.972656 59.03125 30.996094 C 59.03125 18.019531 50.117188 6.742188 37.488281 3.75 L 28 8 C 35.730469 8 45 18.851563 45 31 C 45 43.148438 35.730469 54 28 54 Z "/>
<path style=" fill:#CC5683;" d="M 43.371094 5.871094 C 41.5 4.949219 39.53125 4.242188 37.5 3.761719 L 28 8 C 30.171875 7.945313 32.296875 8.652344 34 10 C 36.964844 8.285156 40.105469 6.898438 43.371094 5.871094 Z "/>
<path style=" fill:#ED7899;" d="M 28 54.871094 C 30.582031 53.695313 33.257813 52.734375 36 52 L 45 56 C 42.789063 56 39.578125 57.449219 37.371094 59 C 34.40625 57.285156 31.265625 55.898438 28 54.871094 Z "/>
<path style=" fill:#ED7899;" d="M 22.519531 48.511719 C 26.273438 53.359375 31.5625 56.789063 37.519531 58.238281 C 26.257813 60.910156 14.515625 56.375 7.972656 46.832031 C 1.425781 37.289063 1.425781 24.703125 7.972656 15.15625 C 14.515625 5.613281 26.257813 1.082031 37.519531 3.75 C 31.082031 5.316406 25.4375 9.183594 21.648438 14.621094 C 18.527344 19.988281 16.921875 26.101563 17 32.308594 C 17 43 22.519531 48.511719 22.519531 48.511719 Z "/>
<path style=" fill:#8D6C9F;" d="M 60 31 C 59.996094 17.578125 50.785156 5.914063 37.730469 2.800781 L 37.621094 2.800781 C 25.945313 0.0507813 13.78125 4.773438 7.019531 14.679688 C 0.257813 24.585938 0.292969 37.632813 7.109375 47.503906 C 13.921875 57.375 26.109375 62.03125 37.769531 59.21875 L 37.820313 59.21875 C 50.847656 56.066406 60.015625 44.402344 60 31 Z M 58 31 C 57.996094 43.40625 49.539063 54.214844 37.5 57.199219 C 34.808594 56.539063 32.246094 55.433594 29.921875 53.929688 C 30.277344 53.972656 30.640625 53.996094 31 54 C 39.269531 54 46 43.679688 46 31 C 46 18.320313 39.269531 8 31 8 C 30.664063 8.003906 30.332031 8.023438 30 8.058594 C 32.304688 6.570313 34.839844 5.46875 37.5 4.800781 C 49.539063 7.785156 57.996094 18.59375 58 31 Z M 22.449219 15.210938 C 22.839844 14.671875 23.261719 14.160156 23.679688 13.648438 C 25.488281 11.445313 28.152344 10.117188 31 10 C 38.171875 10 44 19.421875 44 31 C 44 42.578125 38.171875 52 31 52 C 28.242188 51.898438 25.65625 50.640625 23.871094 48.539063 C 23.679688 48.320313 23.480469 48.109375 23.300781 47.878906 C 20.089844 44.050781 18 37.921875 18 31 C 18 24.710938 19.730469 19.070313 22.449219 15.210938 Z M 4 31 C 4 16.089844 16.089844 4 31 4 C 31.761719 4 32.511719 4 33.25 4.101563 C 28.265625 6.167969 23.964844 9.601563 20.839844 14 C 20.808594 14.058594 20.78125 14.117188 20.761719 14.179688 C 17.523438 19.183594 15.867188 25.042969 16 31 C 16 38.269531 18.21875 44.761719 21.660156 49 C 21.683594 49.050781 21.710938 49.101563 21.738281 49.148438 C 24.753906 53.003906 28.707031 56.015625 33.21875 57.898438 C 32.488281 57.960938 31.75 58 31 58 C 16.089844 58 4 45.910156 4 31 Z "/>
<path style=" fill:#8D6C9F;" d="M 51.320313 30.308594 C 50.769531 30.308594 50.320313 30.757813 50.320313 31.308594 C 50.320313 31.863281 50.769531 32.308594 51.320313 32.308594 L 53.320313 32.308594 C 53.871094 32.308594 54.320313 31.863281 54.320313 31.308594 C 54.320313 30.757813 53.871094 30.308594 53.320313 30.308594 Z "/>
<path style=" fill:#8D6C9F;" d="M 52.839844 35.910156 L 50.910156 35.390625 C 50.5625 35.28125 50.179688 35.375 49.917969 35.628906 C 49.65625 35.886719 49.554688 36.261719 49.652344 36.613281 C 49.75 36.964844 50.035156 37.238281 50.390625 37.320313 L 52.320313 37.839844 C 52.84375 37.960938 53.371094 37.648438 53.511719 37.125 C 53.652344 36.605469 53.355469 36.066406 52.839844 35.910156 Z "/>
<path style=" fill:#8D6C9F;" d="M 48.710938 22.558594 C 48.886719 22.5625 49.058594 22.515625 49.210938 22.429688 L 50.941406 21.429688 C 51.265625 21.257813 51.472656 20.925781 51.476563 20.558594 C 51.480469 20.191406 51.285156 19.851563 50.964844 19.671875 C 50.644531 19.492188 50.25 19.503906 49.941406 19.699219 L 48.210938 20.699219 C 47.8125 20.925781 47.621094 21.386719 47.738281 21.828125 C 47.855469 22.269531 48.253906 22.574219 48.710938 22.570313 Z "/>
<path style=" fill:#8D6C9F;" d="M 48.210938 41.921875 L 49.941406 42.921875 C 50.25 43.117188 50.644531 43.128906 50.964844 42.949219 C 51.285156 42.769531 51.480469 42.429688 51.476563 42.0625 C 51.472656 41.695313 51.265625 41.359375 50.941406 41.191406 L 49.210938 40.191406 C 48.898438 39.992188 48.507813 39.980469 48.1875 40.160156 C 47.867188 40.339844 47.667969 40.679688 47.671875 41.046875 C 47.679688 41.414063 47.882813 41.75 48.210938 41.921875 Z "/>
<path style=" fill:#8D6C9F;" d="M 49.691406 26.519531 C 49.832031 27.050781 50.378906 27.371094 50.910156 27.230469 L 52.839844 26.710938 C 53.195313 26.628906 53.476563 26.355469 53.578125 26.003906 C 53.675781 25.652344 53.574219 25.273438 53.3125 25.019531 C 53.050781 24.765625 52.667969 24.671875 52.320313 24.78125 L 50.390625 25.300781 C 49.863281 25.445313 49.550781 25.988281 49.691406 26.519531 Z "/>
</g>
</svg>
