<?xml version="1.0" encoding="UTF-8"?>
<svg xmlns="http://www.w3.org/2000/svg" xmlns:xlink="http://www.w3.org/1999/xlink" viewBox="0 0 64 64" version="1.1" width="64px" height="64px">
<g id="surface1">
<path style=" fill:#FAEFDE;" d="M 59.011719 31.050781 C 59.011719 46.515625 46.472656 59.050781 31.011719 59.050781 C 15.546875 59.050781 3.011719 46.515625 3.011719 31.050781 C 3.011719 15.585938 15.546875 3.050781 31.011719 3.050781 C 46.472656 3.050781 59.011719 15.585938 59.011719 31.050781 Z "/>
<path style=" fill:#6FC6F0;" d="M 31 53.050781 C 18.851563 53.050781 9 43.199219 9 31.050781 C 9 18.898438 18.851563 9.050781 31 9.050781 C 43.148438 9.050781 53 18.898438 53 31.050781 C 53 43.199219 43.148438 53.050781 31 53.050781 Z "/>
<path style=" fill:#85CBF8;" d="M 31 48.050781 C 21.609375 48.050781 14 40.4375 14 31.050781 C 14 21.660156 21.609375 14.050781 31 14.050781 C 40.390625 14.050781 48 21.660156 48 31.050781 C 48 40.4375 40.390625 48.050781 31 48.050781 Z "/>
<path style=" fill:#FAEFDE;" d="M 34.410156 34.320313 L 34.300781 34.421875 C 34.035156 34.671875 33.746094 34.898438 33.441406 35.101563 L 14.738281 47.101563 L 26.738281 28.398438 C 26.921875 28.109375 27.132813 27.835938 27.371094 27.589844 L 27.46875 27.691406 L 31 31 Z "/>
<path style=" fill:#ED7899;" d="M 47.261719 14.789063 L 35.261719 33.488281 C 35.019531 33.851563 34.742188 34.1875 34.429688 34.488281 L 34.320313 34.390625 L 30.859375 31.078125 L 27.410156 27.78125 L 27.511719 27.679688 C 27.828125 27.335938 28.1875 27.03125 28.578125 26.78125 Z "/>
<path style=" fill:#E0678F;" d="M 47.261719 14.789063 L 35.261719 33.488281 C 35.019531 33.851563 34.742188 34.1875 34.429688 34.488281 L 34.320313 34.390625 L 34.171875 34.519531 L 31 31 Z "/>
<path style=" fill:#EFD8BE;" d="M 34.148438 34.550781 C 33.929688 34.753906 33.691406 34.9375 33.441406 35.101563 L 14.738281 47.101563 L 30.839844 31.101563 L 31 31 Z "/>
<path style=" fill:#8D6C9F;" d="M 31 2.050781 C 14.984375 2.050781 2 15.035156 2 31.050781 C 2 47.066406 14.984375 60.050781 31 60.050781 C 47.015625 60.050781 60 47.066406 60 31.050781 C 60 15.035156 47.015625 2.050781 31 2.050781 Z M 31 58.050781 C 16.089844 58.050781 4 45.960938 4 31.050781 C 4 16.136719 16.089844 4.050781 31 4.050781 C 45.910156 4.050781 58 16.136719 58 31.050781 C 58 45.960938 45.910156 58.050781 31 58.050781 Z "/>
<path style=" fill:#FAEFDE;" d="M 30 13.050781 L 30 15.050781 C 30 15.601563 30.449219 16.050781 31 16.050781 C 31.550781 16.050781 32 15.601563 32 15.050781 L 32 13.050781 C 32 12.496094 31.550781 12.050781 31 12.050781 C 30.449219 12.050781 30 12.496094 30 13.050781 Z "/>
<path style=" fill:#FAEFDE;" d="M 30 47.050781 L 30 49.050781 C 30 49.601563 30.449219 50.050781 31 50.050781 C 31.550781 50.050781 32 49.601563 32 49.050781 L 32 47.050781 C 32 46.496094 31.550781 46.050781 31 46.050781 C 30.449219 46.050781 30 46.496094 30 47.050781 Z "/>
<path style=" fill:#FAEFDE;" d="M 50 31.050781 C 50 30.496094 49.550781 30.050781 49 30.050781 L 47 30.050781 C 46.449219 30.050781 46 30.496094 46 31.050781 C 46 31.601563 46.449219 32.050781 47 32.050781 L 49 32.050781 C 49.550781 32.050781 50 31.601563 50 31.050781 Z "/>
<path style=" fill:#FAEFDE;" d="M 16 31.050781 C 16 30.496094 15.550781 30.050781 15 30.050781 L 13 30.050781 C 12.449219 30.050781 12 30.496094 12 31.050781 C 12 31.601563 12.449219 32.050781 13 32.050781 L 15 32.050781 C 15.550781 32.050781 16 31.601563 16 31.050781 Z "/>
<path style=" fill:#FAEFDE;" d="M 17.570313 17.621094 C 17.183594 18.011719 17.183594 18.640625 17.570313 19.03125 L 19 20.449219 C 19.402344 20.832031 20.035156 20.820313 20.421875 20.421875 C 20.804688 20.019531 20.789063 19.382813 20.390625 19 L 19 17.621094 C 18.8125 17.425781 18.554688 17.320313 18.285156 17.320313 C 18.015625 17.320313 17.757813 17.425781 17.570313 17.621094 Z "/>
<path style=" fill:#FAEFDE;" d="M 41.609375 41.660156 C 41.222656 42.050781 41.222656 42.679688 41.609375 43.070313 L 43 44.488281 C 43.398438 44.828125 43.988281 44.808594 44.359375 44.4375 C 44.726563 44.066406 44.75 43.476563 44.410156 43.078125 L 43 41.660156 C 42.613281 41.285156 41.996094 41.285156 41.609375 41.660156 Z "/>
<path style=" fill:#FAEFDE;" d="M 23.878906 13.441406 C 23.371094 13.648438 23.125 14.230469 23.328125 14.738281 L 24.078125 16.589844 C 24.230469 16.972656 24.601563 17.21875 25.011719 17.21875 C 25.339844 17.21875 25.652344 17.054688 25.839844 16.78125 C 26.023438 16.507813 26.0625 16.15625 25.941406 15.851563 L 25.179688 14 C 25.082031 13.753906 24.890625 13.554688 24.644531 13.449219 C 24.402344 13.34375 24.125 13.339844 23.878906 13.441406 Z "/>
<path style=" fill:#FAEFDE;" d="M 36.621094 45 C 36.109375 45.207031 35.863281 45.789063 36.070313 46.300781 L 36.820313 48.148438 C 36.972656 48.53125 37.339844 48.78125 37.75 48.78125 C 38.082031 48.78125 38.390625 48.617188 38.578125 48.339844 C 38.765625 48.066406 38.804688 47.71875 38.679688 47.410156 L 37.929688 45.558594 C 37.832031 45.3125 37.636719 45.109375 37.390625 45.003906 C 37.144531 44.902344 36.867188 44.898438 36.621094 45 Z "/>
<path style=" fill:#FAEFDE;" d="M 47.320313 23.378906 L 45.46875 24.128906 C 44.953125 24.335938 44.699219 24.917969 44.90625 25.433594 C 45.109375 25.953125 45.695313 26.203125 46.210938 26 L 48.058594 25.25 C 48.535156 25.023438 48.753906 24.460938 48.554688 23.972656 C 48.355469 23.484375 47.8125 23.230469 47.308594 23.398438 Z "/>
<path style=" fill:#FAEFDE;" d="M 14.308594 38.800781 C 14.441406 38.800781 14.570313 38.777344 14.691406 38.730469 L 16.539063 38 C 16.890625 37.882813 17.148438 37.578125 17.210938 37.210938 C 17.269531 36.84375 17.117188 36.472656 16.820313 36.25 C 16.523438 36.027344 16.125 35.988281 15.789063 36.148438 L 13.941406 36.898438 C 13.492188 37.078125 13.234375 37.550781 13.328125 38.023438 C 13.417969 38.496094 13.835938 38.835938 14.320313 38.828125 Z "/>
<path style=" fill:#FAEFDE;" d="M 16.660156 23.878906 L 14.820313 23.101563 C 14.3125 22.875 13.714844 23.101563 13.488281 23.609375 C 13.261719 24.117188 13.492188 24.714844 14 24.941406 L 15.839844 25.71875 C 16.34375 25.910156 16.90625 25.667969 17.113281 25.175781 C 17.324219 24.679688 17.105469 24.109375 16.621094 23.878906 Z "/>
<path style=" fill:#FAEFDE;" d="M 46.121094 36.390625 C 45.617188 36.199219 45.054688 36.441406 44.84375 36.933594 C 44.636719 37.429688 44.855469 38 45.339844 38.230469 L 47.179688 39.011719 C 47.6875 39.238281 48.285156 39.007813 48.511719 38.5 C 48.738281 37.992188 48.507813 37.394531 48 37.171875 Z "/>
<path style=" fill:#FAEFDE;" d="M 37.109375 14.089844 L 36.328125 15.929688 C 36.140625 16.433594 36.378906 16.996094 36.875 17.203125 C 37.371094 17.414063 37.941406 17.195313 38.171875 16.710938 L 39 14.878906 C 39.15625 14.546875 39.117188 14.15625 38.902344 13.863281 C 38.683594 13.566406 38.324219 13.414063 37.960938 13.464844 C 37.597656 13.511719 37.289063 13.757813 37.160156 14.101563 Z "/>
<path style=" fill:#FAEFDE;" d="M 23.828125 45.390625 L 23 47.230469 C 22.808594 47.730469 23.050781 48.296875 23.542969 48.503906 C 24.039063 48.714844 24.613281 48.496094 24.839844 48.011719 L 25.621094 46.171875 C 25.777344 45.839844 25.738281 45.449219 25.519531 45.152344 C 25.304688 44.855469 24.941406 44.703125 24.578125 44.753906 C 24.21875 44.804688 23.910156 45.046875 23.78125 45.390625 Z "/>
<path style=" fill:#8D6C9F;" d="M 35.140625 35.199219 C 35.496094 34.835938 35.8125 34.433594 36.078125 34 L 48.078125 15.300781 C 48.25 14.914063 48.160156 14.464844 47.855469 14.171875 C 47.550781 13.882813 47.097656 13.8125 46.71875 14 L 28 26 C 27.160156 26.542969 26.441406 27.257813 25.898438 28.101563 L 13.898438 46.800781 C 13.648438 47.195313 13.707031 47.710938 14.039063 48.042969 C 14.367188 48.375 14.882813 48.429688 15.28125 48.179688 L 33.980469 36.179688 C 34.402344 35.894531 34.789063 35.566406 35.140625 35.199219 Z M 43.941406 18.121094 L 34.398438 33 L 29.089844 27.691406 Z M 18.058594 44 L 27.601563 29.160156 L 32.910156 34.46875 Z "/>
<path style=" fill:#8D6C9F;" d="M 50.121094 18.28125 C 49.8125 17.820313 49.1875 17.699219 48.730469 18.011719 C 48.273438 18.320313 48.152344 18.941406 48.460938 19.398438 C 53.964844 27.75 52.820313 38.824219 45.71875 45.867188 C 38.617188 52.910156 27.535156 53.972656 19.230469 48.398438 C 18.777344 48.140625 18.199219 48.273438 17.90625 48.707031 C 17.613281 49.136719 17.699219 49.722656 18.109375 50.050781 C 27.210938 56.160156 39.363281 55 47.140625 47.273438 C 54.917969 39.542969 56.160156 27.402344 50.109375 18.261719 Z "/>
<path style=" fill:#8D6C9F;" d="M 40.308594 12.238281 C 41.097656 12.632813 41.859375 13.074219 42.589844 13.558594 C 43.046875 13.832031 43.636719 13.695313 43.929688 13.253906 C 44.226563 12.8125 44.125 12.21875 43.699219 11.898438 C 42.898438 11.367188 42.0625 10.886719 41.199219 10.460938 C 40.878906 10.289063 40.488281 10.304688 40.183594 10.503906 C 39.878906 10.699219 39.703125 11.050781 39.730469 11.414063 C 39.757813 11.777344 39.980469 12.097656 40.308594 12.25 Z "/>
<path style=" fill:#8D6C9F;" d="M 13.640625 42.828125 C 8.683594 35.496094 8.859375 25.839844 14.082031 18.691406 C 19.300781 11.542969 28.445313 8.433594 36.941406 10.921875 C 37.46875 11.074219 38.023438 10.769531 38.179688 10.238281 C 38.335938 9.710938 38.03125 9.15625 37.5 9 C 28.183594 6.265625 18.148438 9.675781 12.429688 17.523438 C 6.710938 25.375 6.539063 35.96875 12 44 C 12.324219 44.410156 12.910156 44.5 13.34375 44.203125 C 13.777344 43.910156 13.910156 43.332031 13.648438 42.878906 Z "/>
</g>
</svg>
